<?xml version="1.0" standalone="no"?>
<!DOCTYPE svg PUBLIC "-//W3C//DTD SVG 20010904//EN"
 "http://www.w3.org/TR/2001/REC-SVG-20010904/DTD/svg10.dtd">
<svg version="1.0" xmlns="http://www.w3.org/2000/svg"
 width="224.000000pt" height="224.000000pt" viewBox="0 0 224.000000 224.000000"
 preserveAspectRatio="xMidYMid meet">

<g transform="translate(0.000000,224.000000) scale(0.100000,-0.100000)"
fill="#000000" stroke="none">
<path d="M1015 2076 c-60 -28 -87 -56 -114 -116 -43 -95 -19 -215 57 -281 50
-44 91 -59 162 -59 71 0 112 15 162 59 78 68 101 188 54 286 -28 60 -56 87
-116 114 -62 28 -141 27 -205 -3z"/>
<path d="M311 1539 c-51 -48 -51 -120 0 -163 l31 -26 267 0 c194 0 270 -3 279
-12 9 -9 12 -150 12 -571 l0 -559 34 -34 c56 -56 135 -44 171 26 12 24 15 81
15 315 0 253 2 286 16 292 9 3 20 0 25 -8 5 -8 9 -144 9 -304 0 -260 2 -292
18 -311 50 -63 146 -58 184 9 10 17 14 159 18 587 l5 565 257 5 c254 5 257 5
282 29 46 43 44 114 -5 160 -23 21 -25 21 -809 21 -784 0 -786 0 -809 -21z"/>
</g>
</svg>
